<svg xmlns="http://www.w3.org/2000/svg" xmlns:xlink="http://www.w3.org/1999/xlink" width="48" height="48"><defs><path fill="#29d9c2" id="a" d="M5 35h26c1.54 0 3-1.46 3-3V18c0-1.54-1.46-3-3-3h-7v-2c0-1.27-.73-2-2-2h-8c-1.27 0-2 .73-2 2v2H5c-1.54 0-3 1.46-3 3v14c0 1.54 1.46 3 3 3zm23-18h2v16h-2V17zm-4 0h2v16h-2V17zm-10-4h8v2h-8v-2zm-4 4h2v16h-2V17zm-4 0h2v16H6V17zM45.529 1.848 38 6.554V35c0 2.936-2.393 4-4 4H2v-2h32c.464-.008 2-.174 2-2V5.446L44.471.152l1.058 1.696zM14 44c0 2.206-1.794 4-4 4s-4-1.794-4-4 1.794-4 4-4 4 1.794 4 4zm16 0c0 2.206-1.794 4-4 4s-4-1.794-4-4 1.794-4 4-4 4 1.794 4 4z"/></defs><use xlink:href="#a"/></svg>