<svg viewBox="0 0 128 128" xml:space="preserve" xmlns="http://www.w3.org/2000/svg"><path fill="#44998B" d="M34 4h60L77.9 28.1H50.3z"/><path d="m94.2 4 9.7 6.6c6.8 4.6 8.6 13.9 4 20.7L82.2 70l-29.5-4.5L94.2 4z" fill="#50B2A0"/><path d="m34 4-9.7 6.6c-6.8 4.6-8.6 13.9-4 20.7L46 70l29.5-4.5L34 4z" fill="#65C5B4"/><path d="m31.3 10.6 4.9-3.4L34 4l-9.7 6.6c-6.8 4.6-8.6 13.9-4 20.7L46 70l6.4-1-25.2-37.6c-4.5-6.9-2.7-16.1 4.1-20.8z" fill="#FFF"/><circle cx="64" cy="94" fill="#D3A798" r="30"/><path d="M40 94c0-15.6 11.8-28.3 27-29.9-1-.1-2-.1-3-.1-16.6 0-30 13.4-30 30s13.4 30 30 30c1 0 2-.1 3-.1-15.2-1.6-27-14.3-27-29.9z" fill="#FFF"/><path d="m104.1 9.4-9.2-6.6h-.2s-.1 0-.1-.1H33.7c-.1 0-.1 0-.2.1-.1 0-.1.1-.2.1h-.1l-9.7 6.6C16 14.5 14 24.7 19 32.2l25 37.5C37 75.5 32.5 84.2 32.5 94c0 17.4 14.1 31.5 31.5 31.5S95.5 111.4 95.5 94c0-10-4.7-18.9-11.9-24.7l24.7-37.4c4.9-7.4 3.1-17.3-4.2-22.5zM52.9 29.6h22.2L64 46.3 52.9 29.6zM77 26.7c-.2-.1-.3-.1-.5-.1H51L36.8 5.5h54.4L77 26.7zm-55.5 3.8C17.4 24.4 19 16 25.1 11.9l8.5-5.8 29.2 43.7.1.1 9 13.5c-2.5-.6-5.1-1-7.9-1-6.5 0-12.6 2-17.6 5.4L21.5 30.5zm71 63.5c0 15.7-12.8 28.5-28.5 28.5S35.5 109.7 35.5 94 48.3 65.5 64 65.5 92.5 78.3 92.5 94zm13.3-63.8L81.1 67.6c-1.3-.9-2.5-1.5-4-2.2l-.5-.7L65.8 49 94.4 6.1l8 5.7c5.9 4.3 7.4 12.4 3.4 18.4z" fill="#62355C"/><path d="M42.5 94c0 .8.7 1.5 1.5 1.5s1.5-.7 1.5-1.5c0-10.2 8.3-18.5 18.5-18.5.8 0 1.5-.7 1.5-1.5s-.7-1.5-1.5-1.5c-11.9 0-21.5 9.6-21.5 21.5zM62.5 114c0 .8.7 1.5 1.5 1.5 11.9 0 21.5-9.6 21.5-21.5 0-.8-.7-1.5-1.5-1.5s-1.5.7-1.5 1.5c0 10.2-8.3 18.5-18.5 18.5-.8 0-1.5.7-1.5 1.5z" fill="#FFF"/></svg>