<svg style="enable-background:new 0 0 64 64" viewBox="0 0 64 64" xml:space="preserve" xmlns="http://www.w3.org/2000/svg"><path style="fill:#42a5b2" d="M27.779 24.146 20.255 3.474l5.638-2.052 13.162 18.621z"/><path d="m4.799 28.254 45.178-16.443a4 4 0 0 1 3.449.342l3.826 2.33a4 4 0 0 1 2.736 7.518L28.039 33.629l-21.188.263-2.052-5.638z" style="fill:#62c4c3"/><path style="fill:#42a5b2" d="m5.138 17.489-3.759 1.368 3.42 9.397 7.518-2.736zM29.148 27.905l7.523 20.673 5.64-2.052-1.888-22.725z"/><path style="fill:#3a4249" transform="rotate(-19.982 53.628 14.743)" d="M51.122 13.741h5v2h-5z"/><path style="fill:#3a4249" transform="rotate(-19.993 45.634 17.648)" d="M44.634 16.648h1.999v1.999h-1.999z"/><path style="fill:#3a4249" transform="rotate(-19.993 41.875 19.016)" d="M40.875 18.016h1.999v1.999h-1.999z"/><path style="fill:#3a4249" transform="rotate(-19.993 38.116 20.385)" d="M37.117 19.385h1.999v1.999h-1.999z"/><path style="fill:#3a4249" transform="rotate(-19.993 34.357 21.753)" d="M33.358 20.753h1.999v1.999h-1.999z"/><path style="fill:#3a4249" transform="rotate(-19.993 30.598 23.12)" d="M29.599 22.121h1.999v1.999h-1.999z"/><path style="fill:#3a4249" transform="rotate(-19.993 26.84 24.488)" d="M25.84 23.489h1.999v1.999H25.84z"/><path style="fill:#3a4249" transform="rotate(-19.993 23.08 25.857)" d="M22.081 24.857h1.999v1.999h-1.999z"/><path style="fill:#3a4249" transform="rotate(-20.016 19.326 27.226)" d="M18.323 26.225h2v2h-2z"/><path style="fill:#3a4249" transform="rotate(-20.016 15.567 28.595)" d="M14.564 27.593h2v2h-2z"/><path d="M36 54H19c-3.309 0-6-2.691-6-6s2.691-6 6-6h7v2h-7c-2.206 0-4 1.794-4 4s1.794 4 4 4h17v2zM38 52h2v2h-2z" style="fill:#3a4249"/><path d="M50.5 61H19v-2h31.5c1.379 0 2.5-1.122 2.5-2.5S51.879 54 50.5 54H42v-2h8.5c2.481 0 4.5 2.019 4.5 4.5S52.981 61 50.5 61zM7 59h10v2H7z" style="fill:#3a4249"/><circle cx="5" cy="60" r="3" style="fill:#efbc2e"/><circle cx="28" cy="43" r="3" style="fill:#efbc2e"/></svg>